<svg xmlns="http://www.w3.org/2000/svg"><defs><clipPath id="clip0"><path transform="translate(.619)" d="M0 0h19.148v20H0z"/></clipPath></defs><symbol id="icon-email" viewBox="0 0 19 14"><path stroke-width="1.3" d="M1.19 6v8m17-8v8M.54 13.35h18m-18-12h18m-.65 1.832L9.54 9.677 1.19 3.182V1.65h16.7v1.532z"/></symbol><symbol id="icon-phone" viewBox="0 0 20 20"><g clip-path="url(#clip0)"><path d="M17.756 9.4H9.618v1.2h8.138l-2.01 2.1.861.9 2.968-3.1a.772.772 0 000-.9l-2.968-3.1-.861.9 2.01 2zm-9.382 10v-6.2a.663.663 0 00-.18-.411.611.611 0 00-.395-.189H3.587c.005.317.127.619.342.843.214.224.503.352.806.357H7.13v5H3.587a1.645 1.645 0 01-.669-.095 1.7 1.7 0 01-.581-.357 1.785 1.785 0 01-.405-.565 1.854 1.854 0 01-.164-.683v-14c-.008-.463.158-.91.462-1.247A1.664 1.664 0 013.395 1.3H7.13v5H4.831a1.144 1.144 0 00-.807.357 1.247 1.247 0 00-.342.843h4.213a.611.611 0 00.394-.189.663.663 0 00.18-.411V.6a.864.864 0 00-.251-.402A.808.808 0 007.799 0H3.587A2.762 2.762 0 002.48.19a2.856 2.856 0 00-.953.617 3 3 0 00-.653.952A3.111 3.111 0 00.619 2.9v13.9c-.028.398.023.797.15 1.173.128.376.328.72.589 1.011.26.292.576.523.927.68.35.158.728.238 1.11.236H7.8a.46.46 0 00.402-.106.497.497 0 00.173-.394z"/></g></symbol><symbol id="icon-gift" viewBox="0 0 80 84"><path d="M65.657 36.757H14.391a3.266 3.266 0 01-3.263-3.262v-9.772a3.267 3.267 0 013.263-3.263h51.265a3.266 3.266 0 013.262 3.263v9.773a3.264 3.264 0 01-3.26 3.261zM14.391 22.96a.773.773 0 00-.763.763v9.773c0 .42.342.762.763.762h51.265c.42 0 .762-.342.762-.762v-9.773a.772.772 0 00-.762-.763H14.391z"/><path d="M58.508 70.236h-36.97a6.289 6.289 0 01-6.282-6.282V35.507a1.25 1.25 0 012.5 0v28.447a3.786 3.786 0 003.782 3.782h36.97a3.786 3.786 0 003.78-3.782V35.507a1.25 1.25 0 012.5 0v28.447a6.288 6.288 0 01-6.28 6.282z"/><path d="M40.023 70.236c-.69 0-1.25-.56-1.25-1.25V35.507a1.25 1.25 0 012.5 0v33.478a1.25 1.25 0 01-1.25 1.251zm-15.601-47.28c-3.913-2.12-5.373-7.027-3.255-10.94 2.117-3.912 7.024-5.372 10.938-3.256C38.07 11.99 41.29 21 41.422 21.383l-2.358.83c-.03-.086-3.038-8.486-8.148-11.255a5.578 5.578 0 00-7.55 2.247 5.58 5.58 0 002.248 7.553l-1.192 2.198z"/><path d="M55.622 22.956l-1.19-2.199a5.541 5.541 0 002.688-3.31 5.53 5.53 0 00-.441-4.241 5.527 5.527 0 00-3.309-2.688 5.533 5.533 0 00-4.24.44c-5.11 2.768-8.118 11.169-8.148 11.254l-2.358-.83C38.758 21 41.977 11.99 47.94 8.76a8.015 8.015 0 016.144-.638 8.01 8.01 0 014.794 3.893 8.013 8.013 0 01.639 6.144 8.028 8.028 0 01-3.895 4.797zm7.916 30.541H16.506a1.25 1.25 0 010-2.5h47.032a1.25 1.25 0 010 2.5z"/></symbol><symbol id="icon-facebook" viewBox="0 0 28 33"><g id="icon_facebook"><g id="Group"><path id="Vector" d="M21 2.75h-3.5c-1.547 0-3.03.71-4.125 1.974-1.094 1.265-1.708 2.98-1.708 4.767v4.045h-3.5v5.393h3.5v10.786h4.666V18.93h3.5L21 13.536h-4.667V9.491c0-.357.123-.7.342-.953.219-.253.516-.395.825-.395H21V2.75z" stroke-width="1.1" stroke-linecap="round" stroke-linejoin="round"/></g></g></symbol><symbol id="icon-html-academy" viewBox="0 0 27 34"><path d="M13.643.016L13.5 0 0 1.407v24.606L13.5 34 27 26.013V1.407L13.643.016zm11.591 25L13.5 31.956 1.766 25.015V14.93l11.685 6.916.02 1.253-8.017-4.743-.011 1.225 8.046 4.809.02 1.286-8.045-4.758-.01 1.226L13.5 26.95l8.124-4.833V16.91l3.62-2.15-.01 10.256zm0-11.564l-3.22 1.88-1.482.875-7.065-4.187-.011 1.225 6.04 3.573-.053.031-.13.076-.86.492-4.986-2.948-.011 1.225 3.936 2.328-.933.61-.021.012-2.971-1.742-.011 1.225 1.947 1.135-1.988 1.186-11.618-6.872 11.638-6.958 11.8 6.834zm0-1.225L13.44 5.31 1.766 12.22V2.99L13.5 1.764 25.234 2.99v9.237z"/></symbol><symbol id="icon-instagram" viewBox="0 0 23 23"><path id="Vector" d="M11.477.09c1.917 0 3.482.022 4.695.067 1.033.045 1.954.225 2.763.54a5.727 5.727 0 012.021 1.302 5.732 5.732 0 011.303 2.022c.314.808.494 1.729.539 2.762.045 1.213.067 2.778.067 4.694 0 1.917-.022 3.482-.067 4.695-.045 1.033-.225 1.954-.54 2.763a5.733 5.733 0 01-1.302 2.021 5.733 5.733 0 01-2.021 1.303c-.809.314-1.73.494-2.763.539-1.213.045-2.778.067-4.695.067-1.916 0-3.48-.022-4.694-.067-1.033-.045-1.954-.225-2.762-.54a5.732 5.732 0 01-2.022-1.302 5.733 5.733 0 01-1.303-2.021c-.314-.809-.494-1.73-.539-2.763a131.868 131.868 0 01-.067-4.695c0-1.916.022-3.48.067-4.694.045-1.033.225-1.954.54-2.762a5.713 5.713 0 011.302-2.022A5.731 5.731 0 014.021.696C4.829.382 5.75.202 6.783.157 7.996.112 9.561.09 11.477.09zm0 1.482c-1.991 0-3.616.023-4.873.068a7.21 7.21 0 00-2.247.426c-1.078.45-1.841 1.213-2.29 2.291a7.21 7.21 0 00-.427 2.247 142.032 142.032 0 00-.068 4.873c0 1.992.023 3.617.068 4.875a7.21 7.21 0 00.426 2.246c.45 1.078 1.213 1.841 2.291 2.29a7.211 7.211 0 002.247.427c1.257.045 2.882.068 4.873.068 1.992 0 3.617-.023 4.875-.068a7.211 7.211 0 002.246-.426c1.078-.45 1.841-1.213 2.29-2.291a7.211 7.211 0 00.427-2.246c.045-1.258.068-2.883.068-4.875 0-1.991-.023-3.616-.068-4.873a7.211 7.211 0 00-.426-2.247c-.45-1.078-1.213-1.841-2.291-2.29a7.21 7.21 0 00-2.246-.427 142.035 142.035 0 00-4.875-.068zm0 14.465c1.258 0 2.333-.445 3.224-1.336.89-.891 1.336-1.966 1.336-3.224 0-1.257-.445-2.332-1.336-3.223-.891-.89-1.966-1.336-3.224-1.336-1.257 0-2.332.445-3.223 1.336-.89.891-1.336 1.966-1.336 3.223 0 1.258.445 2.333 1.336 3.224.891.89 1.966 1.336 3.223 1.336zm0-10.4c1.618 0 2.995.57 4.133 1.708s1.707 2.515 1.707 4.132c0 1.618-.569 2.995-1.707 4.133-1.138 1.138-2.515 1.707-4.133 1.707-1.617 0-2.994-.569-4.132-1.707-1.138-1.138-1.707-2.515-1.707-4.133 0-1.617.569-2.994 1.707-4.132 1.138-1.138 2.515-1.707 4.132-1.707zm7.458-.224c0 .374-.135.693-.405.955s-.599.393-.988.393a1.3 1.3 0 01-.955-.393 1.3 1.3 0 01-.393-.955c0-.39.131-.719.393-.988.262-.27.58-.404.955-.404.374 0 .7.138.977.415.277.277.416.603.416.977z"/></symbol><symbol id="icon-vkontakte" viewBox="0 0 23 16"><path d="M.07 3.993c0-.622.423-.957 1.27-1.006l3.26.018c.22 0 .365.091.438.274.336.915.711 1.704 1.127 2.369.416.664.96 1.43 1.63 2.295a.3.3 0 00.285.165.276.276 0 00.24-.128l.067-.201.021-3.165c0-.219-.062-.365-.186-.438-.124-.074-.353-.128-.689-.165-.263-.037-.394-.17-.394-.402a.21.21 0 01.022-.11c.306-.793 1.182-1.189 2.626-1.189l1.226-.018c.554 0 1.014.116 1.379.347.364.232.547.598.547 1.098v4.151a.562.562 0 00.284.092c.22 0 .409-.11.57-.33 1.604-1.877 2.472-3.133 2.604-3.767a.29.29 0 01.044-.092c.102-.182.27-.34.503-.475.233-.134.438-.226.613-.274a.507.507 0 01.197-.037h3.392l.219.018c.292 0 .518.116.678.348a.63.63 0 01.12.238c.022.085.037.17.044.256.008.085.011.134.011.146v.128c-.102.5-.36 1.033-.777 1.6-.415.567-.944 1.18-1.586 1.838-.642.659-1.044 1.092-1.204 1.299-.131.146-.197.28-.197.402 0 .098.058.208.175.33l3.195 3.365a.939.939 0 01.263.64c0 .28-.131.512-.394.695a1.826 1.826 0 01-.941.31l-.372.02h-3.327a.794.794 0 00-.087.008.802.802 0 01-.088.01c-.32 0-.62-.116-.897-.348-.102-.098-.788-.817-2.057-2.158a1.106 1.106 0 00-.307-.238c-.058.195-.135.475-.23.841a63.68 63.68 0 01-.207.787l-.066.31c-.146.427-.452.684-.92.769l-.306.018H9.743c-1.21 0-2.418-.463-3.622-1.39-1.203-.927-2.287-2.124-3.25-3.594-.963-1.469-1.86-3.18-2.691-5.13a1.254 1.254 0 01-.11-.53zM13.223 8.73a1.66 1.66 0 01-.831-.21c-.248-.14-.372-.333-.372-.577V3.737c0-.244-.073-.418-.22-.522-.145-.103-.4-.155-.765-.155l-1.248.036c-.627 0-1.101.092-1.422.275.642.256.963.67.963 1.243v3.22c-.03.304-.175.557-.438.758a1.405 1.405 0 01-.875.302c-.438 0-.774-.177-1.007-.53C5.87 6.925 5.024 5.559 4.469 4.267l-.197-.476-2.91-.018c-.19 0-.296.01-.318.028-.022.018-.033.07-.033.155 0 .11.015.226.044.348l.46 1.024c1.225 2.646 2.556 4.73 3.994 6.255 1.437 1.524 2.848 2.286 4.234 2.286h2.189c.088 0 .153-.021.197-.064.044-.043.08-.125.11-.247l.043-.183.416-1.61c.117-.219.219-.365.306-.438a.86.86 0 01.57-.201c.35 0 .707.176 1.072.53l1.86 1.975c.117.159.24.238.372.238h3.611c.438 0 .657-.091.657-.274a.312.312 0 00-.066-.183l-3.173-3.31c-.248-.257-.372-.531-.372-.824 0-.292.116-.573.35-.841.19-.244.558-.65 1.105-1.216a28.203 28.203 0 001.434-1.591c.408-.494.678-.942.81-1.345l.065-.237a.243.243 0 01-.022-.12c0-.054-.007-.1-.022-.137H17.82a1.199 1.199 0 00-.525.33l-.131.347c-.365.841-1.32 2.14-2.867 3.896a1.672 1.672 0 01-1.073.366z"/></symbol></svg>