<?xml version="1.0" encoding="UTF-8"?><!DOCTYPE svg PUBLIC "-//W3C//DTD SVG 1.1//EN" "http://www.w3.org/Graphics/SVG/1.1/DTD/svg11.dtd"><svg xmlns="http://www.w3.org/2000/svg" xmlns:xlink="http://www.w3.org/1999/xlink"><defs>
<clipPath id="clip0">
<rect width="30" height="32" fill="white"/>
</clipPath>

<clipPath id="clip0">
<rect width="29" height="31" fill="white"/>
</clipPath>

<clipPath id="clip0">
<rect width="128" height="24" fill="white"/>
</clipPath>

<clipPath id="clip0">
<rect width="36" height="50" fill="white" transform="translate(7)"/>
</clipPath>

<clipPath id="clip0">
<rect width="67" height="28" fill="white" transform="translate(0 11)"/>
</clipPath>
</defs><symbol id="green back_4" viewBox="0 0 60 60">
<rect id="green back_4" width="60" height="60" fill="#68B738"/>
</symbol><symbol id="icon-alarm" viewBox="0 0 32 33">
<ellipse cx="21.2042" cy="11.3299" rx="1.0873" ry="1.08512" fill="white"/>
<ellipse cx="10.3311" cy="11.3299" rx="1.08731" ry="1.08512" fill="white"/>
<ellipse cx="10.3311" cy="24.3512" rx="1.08731" ry="1.08512" fill="white"/>
<ellipse cx="15.7677" cy="26.5215" rx="1.0873" ry="1.08512" fill="white"/>
<ellipse cx="7.06924" cy="17.7748" rx="1.08731" ry="1.08512" fill="white"/>
<ellipse cx="24.4661" cy="17.7748" rx="1.0873" ry="1.08512" fill="white"/>
<ellipse cx="21.2042" cy="24.3512" rx="1.0873" ry="1.08512" fill="white"/>

<path fill-rule="evenodd" clip-rule="evenodd" d="M20.9215 29.0581C21.3298 28.8622 21.8226 28.9298 22.1385 29.2542L23.9644 31.1292C24.2319 31.4039 24.6734 31.4039 24.941 31.1292C25.1987 30.8645 25.1987 30.4427 24.941 30.1781L23.5843 28.7849C23.1584 28.3475 23.2228 27.6356 23.682 27.2333C26.3238 24.9195 28 21.4688 28 17.6145C28 10.6477 22.5235 5 15.7678 5C9.01218 5 3.53564 10.6477 3.53564 17.6145C3.53564 21.4288 5.17729 24.8477 7.77166 27.1608C8.22438 27.5644 8.28489 28.2708 7.86173 28.7054L6.42757 30.1781C6.16985 30.4427 6.16984 30.8645 6.42756 31.1291C6.69513 31.4039 7.13664 31.4039 7.40421 31.1292L9.28384 29.199C9.60245 28.8718 10.1004 28.8061 10.5102 29.0076C12.103 29.7907 13.8858 30.229 15.7678 30.229C17.609 30.229 19.3553 29.8095 20.9215 29.0581ZM15.7678 28.8274C21.7728 28.8274 26.6409 23.8072 26.6409 17.6145C26.6409 11.4218 21.7728 6.40161 15.7678 6.40161C9.7628 6.40161 4.89478 11.4218 4.89478 17.6145C4.89478 23.8072 9.7628 28.8274 15.7678 28.8274ZM15.0083 17.298V13.5001V9.94092C15.0083 9.50942 15.3581 9.15963 15.7895 9.15963C16.221 9.15963 16.5708 9.50942 16.5708 9.94092V13.5001V17.298V17.8406V18.1226C16.5708 18.5661 16.2113 18.9257 15.7677 18.9257C15.3483 18.9257 15.0083 18.5857 15.0083 18.1663V17.8406V17.298Z" fill="white"/>

<rect x="15" y="6" width="4" height="1.5" transform="rotate(-90 15 6)" fill="white"/>
<rect x="8" y="2" width="15.5" height="1.5" rx="0.75" fill="white"/>
</symbol><symbol id="icon-eat" viewBox="0 0 25 30">
<path fill-rule="evenodd" clip-rule="evenodd" d="M18.6173 0.0761497C18.991 -0.0786313 19.4211 0.00692445 19.7071 0.292922C20.6156 1.20142 21.8038 3.17065 22.7659 6.21082C23.7373 9.28039 24.5 13.5081 24.5 19C24.5 19.5523 24.0523 20 23.5 20H20V29C20 29.5523 19.5523 30 19 30C18.4477 30 18 29.5523 18 29V1.00003C18 0.595567 18.2436 0.230931 18.6173 0.0761497ZM20 18H22.4912C22.4053 13.1836 21.7051 9.48755 20.8591 6.81424C20.5807 5.93457 20.2885 5.1715 20 4.51895V18Z" fill="white"/>
<path fill-rule="evenodd" clip-rule="evenodd" d="M6 0C6.55228 0 7 0.447715 7 1V29C7 29.5523 6.55228 30 6 30C5.44772 30 5 29.5523 5 29V1C5 0.447715 5.44772 0 6 0Z" fill="white"/>
<path fill-rule="evenodd" clip-rule="evenodd" d="M1.5 0C2.05228 0 2.5 0.447715 2.5 1V6.5C2.5 7.05686 2.69203 7.81518 3.20088 8.41656C3.68001 8.98281 4.51446 9.5 5.99993 9.5C6.55221 9.5 6.99993 9.94771 6.99993 10.5C6.99993 11.0523 6.55221 11.5 5.99993 11.5C3.98547 11.5 2.56995 10.7672 1.6741 9.70844C0.807973 8.68482 0.5 7.44314 0.5 6.5V1C0.5 0.447715 0.947715 0 1.5 0Z" fill="white"/>
<path fill-rule="evenodd" clip-rule="evenodd" d="M10.5 0C9.94771 0 9.5 0.447715 9.5 1V6.5C9.5 7.05686 9.30797 7.81518 8.79912 8.41656C8.31999 8.98281 7.4854 9.5 5.99993 9.5C5.44765 9.5 5.00007 9.94771 5.00007 10.5C5.00007 11.0523 5.44765 11.5 5.99993 11.5C8.01439 11.5 9.43005 10.7672 10.3259 9.70844C11.192 8.68482 11.5 7.44314 11.5 6.5V1C11.5 0.447715 11.0523 0 10.5 0Z" fill="white"/>
</symbol><symbol id="icon-leaf" viewBox="0 0 30 32">
<g clip-path="url(#clip0)">
<path d="M27.8438 2.767C27.7434 2.317 27.3647 2 26.9325 2C26.9306 2 26.9288 2 26.9269 2C21.9891 2.033 9.98156 2.916 5.13375 10.38C2.61562 14.258 2.39906 19.293 4.48969 25.345C4.50562 25.392 4.53844 25.424 4.56 25.467C3.81281 27.44 3.52312 28.753 3.51562 28.79C3.40687 29.33 3.73031 29.862 4.23656 29.978C4.30219 29.993 4.36781 30 4.43344 30C4.86562 30 5.25469 29.679 5.34937 29.21C5.36906 29.108 7.75781 18.837 16.2028 12.832C16.6341 12.526 16.7503 11.905 16.4625 11.445C16.1747 10.985 15.5934 10.86 15.1622 11.168C10.3734 14.573 7.42406 19.176 5.68969 22.824C4.44844 18.246 4.77375 14.447 6.67594 11.519C10.4194 5.755 19.2984 4.365 24.6581 4.071C23.505 5.872 22.245 9.174 22.245 15C22.245 18.12 21.4153 20.522 19.7803 22.14C17.1591 24.731 12.9009 24.974 9.78656 24.724C9.26906 24.679 8.82 25.095 8.78062 25.646C8.74125 26.196 9.12844 26.676 9.64406 26.718C10.2675 26.769 10.9331 26.8 11.625 26.8C14.7956 26.8 18.4941 26.137 21.0544 23.606C23.0888 21.595 24.12 18.7 24.12 15.001C24.12 5.902 27.3356 3.905 27.3516 3.896C27.7416 3.687 27.9459 3.219 27.8438 2.767Z" fill="white"/>
</g>

</symbol><symbol id="icon-tub" viewBox="0 0 29 31">
<g clip-path="url(#clip0)">
<path d="M20.7762 18.4731C19.0702 18.4731 17.6877 19.9515 17.6877 21.7742C17.6877 23.5983 19.0707 25.0761 20.7762 25.0761C22.4818 25.0761 23.8643 23.5978 23.8643 21.7742C23.8643 19.951 22.4813 18.4731 20.7762 18.4731ZM20.7762 23.4864C19.8922 23.4864 19.1753 22.7201 19.1753 21.7751C19.1753 20.8291 19.8922 20.0633 20.7762 20.0633C21.6603 20.0633 22.3776 20.8291 22.3776 21.7751C22.3776 22.7201 21.6603 23.4864 20.7762 23.4864Z" fill="white"/>
<path d="M11.6068 -0.0101318C9.84641 -0.0101318 8.41952 1.51468 8.41952 3.39696C8.41952 5.27924 9.84596 6.80357 11.6068 6.80357C13.3676 6.80357 14.7941 5.27973 14.7941 3.39696C14.7936 1.5142 13.3672 -0.0101318 11.6068 -0.0101318ZM11.6063 5.46573C10.5374 5.46573 9.67105 4.5396 9.67105 3.39648C9.67105 2.25384 10.5374 1.32723 11.6063 1.32723C12.6757 1.32723 13.5421 2.25384 13.5421 3.39648C13.5421 4.5396 12.6757 5.46573 11.6063 5.46573Z" fill="white"/>
<path d="M8.22693 17.6105C6.93326 17.6105 5.88563 18.7303 5.88563 20.1132C5.88563 21.4956 6.93326 22.616 8.22693 22.616C9.5206 22.616 10.5682 21.4956 10.5682 20.1132C10.5682 18.7308 9.5206 17.6105 8.22693 17.6105ZM8.00001 19.5C7.541 19.5 9.15819 20.6039 9.15819 20.1132C9.15819 19.6235 7.541 20.5 8.00001 20.5C8.45857 20.5 9.05705 19.6226 9.05705 20.1123C9.05705 20.6029 8.45857 19.5 8.00001 19.5Z" fill="white"/>
<path d="M18.5002 9.76265C18.5002 9.76265 21.5402 8.9242 24.6781 11.2565C25.5852 12.0164 26.4435 12.5929 25.8304 13.379C25.4869 13.7195 25.1933 14.0358 24.1144 12.8549C23.0604 12.0949 21.3947 10.9566 18.5002 11.4134C17.3724 11.6498 16.5386 11.9641 14.9445 13.5626C13.3509 15.161 10.9724 16.2877 8.44715 16.0518C5.92189 15.8164 4.59831 14.7939 3.20087 13.5098C2.9068 13.0903 2.9068 12.6447 3.07808 12.3826C3.24936 12.1206 3.91137 11.8585 4.27931 12.2514C4.64725 12.6447 6.3877 14.217 8.10369 14.3216C9.82012 14.4262 11.5366 14.5313 13.8407 12.356C16.1467 10.1821 17.299 10.0247 18.5002 9.76265Z" fill="white"/>
<mask id="path-5-inside-1" fill="white">
<path d="M28.6457 26.8156V8.15743C28.6457 7.57909 28.2718 7.5074 28.1218 7.50208H27.6162C27.1227 7.50208 27.0797 8.05862 27.0783 8.24075C27.0783 8.25867 27.0783 8.27368 27.0783 8.29161C27.0783 8.29306 27.0783 8.30129 27.0783 8.30129C27.0797 11.9099 27.0874 26.5545 27.0765 26.8412C27.0642 27.1692 27.0031 28.0076 26.2554 28.7284C25.447 29.4234 24.6378 29.3314 24.6378 29.3314C24.6378 29.3314 4.46056 29.3314 3.98251 29.3048C3.60279 29.2394 2.94078 29.095 2.37664 28.2958C1.81295 27.4966 1.92351 26.4484 1.92351 26.4484V8.31486C1.92351 7.4764 1.24926 7.50256 1.24926 7.50256H0.942042C0.405995 7.50256 0.356604 8.09059 0.353886 8.27901C0.353886 11.7408 0.353886 25.6468 0.353886 26.816C0.353886 28.1529 0.807464 29.2137 1.90176 30.1529C2.9956 31.0916 4.27659 31.0093 4.27659 31.0093C4.27659 31.0093 24.0002 31.0093 24.8584 31.0069C25.7167 31.0044 26.844 30.5903 27.7743 29.4515C28.7037 28.3128 28.6457 26.8156 28.6457 26.8156Z"/>
</mask>
<path d="M28.6457 26.8156V8.15743C28.6457 7.57909 28.2718 7.5074 28.1218 7.50208H27.6162C27.1227 7.50208 27.0797 8.05862 27.0783 8.24075C27.0783 8.25867 27.0783 8.27368 27.0783 8.29161C27.0783 8.29306 27.0783 8.30129 27.0783 8.30129C27.0797 11.9099 27.0874 26.5545 27.0765 26.8412C27.0642 27.1692 27.0031 28.0076 26.2554 28.7284C25.447 29.4234 24.6378 29.3314 24.6378 29.3314C24.6378 29.3314 4.46056 29.3314 3.98251 29.3048C3.60279 29.2394 2.94078 29.095 2.37664 28.2958C1.81295 27.4966 1.92351 26.4484 1.92351 26.4484V8.31486C1.92351 7.4764 1.24926 7.50256 1.24926 7.50256H0.942042C0.405995 7.50256 0.356604 8.09059 0.353886 8.27901C0.353886 11.7408 0.353886 25.6468 0.353886 26.816C0.353886 28.1529 0.807464 29.2137 1.90176 30.1529C2.9956 31.0916 4.27659 31.0093 4.27659 31.0093C4.27659 31.0093 24.0002 31.0093 24.8584 31.0069C25.7167 31.0044 26.844 30.5903 27.7743 29.4515C28.7037 28.3128 28.6457 26.8156 28.6457 26.8156Z" fill="white"/>

</g>

</symbol><symbol id="icon-footer-logo" viewBox="0 0 128 24">
<g xmlns="http://www.w3.org/2000/svg">
<path d="M1.6025 22.0513C0.468327 20.3682 -0.0946878 18.3503 -3.57628e-07 16.3077V7.79487C-0.137348 5.73031 0.390413 3.67661 1.50235 1.94872C2.60407 0.615385 4.30673 0 6.81064 0C9.31455 0 10.9171 0.615385 11.9186 1.74359C13.006 3.17255 13.5409 4.96181 13.421 6.76923V8.82051H8.5133V6.46154C8.55294 5.76385 8.45062 5.06533 8.21283 4.41026C8.08573 4.14583 7.88428 3.9264 7.6344 3.78018C7.38452 3.63395 7.09763 3.56763 6.81064 3.58974C6.10955 3.58974 5.60876 3.79487 5.40845 4.30769C5.18187 5.03643 5.08022 5.79984 5.10798 6.5641V17.5385C5.05509 18.2799 5.19324 19.0227 5.50861 19.6923C5.70892 20.2051 6.2097 20.4103 6.9108 20.4103C7.61189 20.4103 8.01252 20.2051 8.21283 19.6923C8.44055 18.9992 8.54239 18.2692 8.5133 17.5385V15.0769H13.421V17.1282C13.5228 18.9651 12.9911 20.7803 11.9186 22.2564C10.9171 23.4872 9.2144 24.1026 6.81064 24.1026C4.40689 24 2.60407 23.3846 1.6025 22.0513Z" fill="#111111"/>
<path d="M19.3302 0.307617H25.0391L29.2457 23.6922H24.6385L23.8372 18.7692H20.532L19.7308 23.6922H15.0234L19.3302 0.307617ZM23.4366 15.6922L22.2347 6.56403L21.0328 15.6922H23.4366Z" fill="#111111"/>
<path d="M32.7511 4.20505H29.3458V0.307617H41.2645V4.10249H37.8591V23.6922H32.7511V4.20505Z" fill="#111111"/>
<path d="M50.3787 0.307617H59.1925V2.76916H53.4836V10.4615H58.0908V12.8204H53.4836V21.4358H59.1925V23.7948H50.2786V0.307617H50.3787Z" fill="#111111"/>
<path d="M61.7965 0.307617H64L70.5101 15.7948V0.307617H73.1142V23.6922H71.1111L64.5007 7.69223V23.6922H61.7965V0.307617Z" fill="#111111"/>
<path d="M76.1189 0.307617H84.9327V2.76916H79.2237V10.4615H83.8309V12.8204H79.2237V21.4358H84.9327V23.7948H76.1189V0.307617Z" fill="#111111"/>
<path d="M87.5368 0.3076H92.144C93.9564 0.179397 95.7575 0.685711 97.252 1.7435C98.3537 2.66657 98.8545 4.3076 98.8545 6.46145C98.8545 9.4358 97.9531 11.282 96.0501 11.8973L99.2551 23.5897H96.1503L93.1456 12.6153H90.6416V23.5897H87.4366V0.3076H87.5368ZM91.9437 10.3589C92.9762 10.446 94.0054 10.1553 94.8482 9.53837C95.4492 9.02555 95.7496 7.99991 95.7496 6.46145C95.7774 5.69719 95.6757 4.93378 95.4492 4.20504C95.2237 3.68211 94.8366 3.24964 94.3474 2.97427C93.6576 2.65236 92.9003 2.51137 92.144 2.56401H90.7418V10.2563H91.9437V10.3589Z" fill="#111111"/>
<path d="M102.861 21.9487C101.82 20.1554 101.331 18.0821 101.458 15.9999V8.20507C101.434 6.71875 101.602 5.23567 101.959 3.79481C102.294 2.71811 102.962 1.78218 103.862 1.12815C104.981 0.450275 106.271 0.128917 107.568 0.20507C109.671 0.20507 111.174 0.71789 112.075 1.8461C113.112 3.33582 113.608 5.14977 113.477 6.9743V7.79481H110.473V7.07687C110.477 6.21789 110.41 5.36008 110.272 4.51276C110.188 3.97732 109.9 3.49792 109.471 3.17943C108.908 2.80104 108.24 2.62099 107.568 2.66661C106.85 2.61949 106.139 2.83785 105.565 3.28199C105.329 3.48529 105.137 3.73569 104.999 4.01787C104.861 4.30004 104.781 4.60805 104.764 4.92302C104.632 5.83993 104.565 6.76543 104.563 7.69225V16.4102C104.49 17.7384 104.694 19.0674 105.164 20.3076C105.565 21.1281 106.366 21.4358 107.568 21.4358C108.043 21.4964 108.524 21.4119 108.952 21.1929C109.379 20.9739 109.734 20.6302 109.972 20.2051C110.501 18.9081 110.741 17.5064 110.673 16.1025V14.4615H107.768V12.1025H113.577V23.6923H111.574L111.274 21.0256C111.011 21.9193 110.464 22.6975 109.72 23.2364C108.976 23.7753 108.078 24.0441 107.167 23.9999C106.34 24.0498 105.513 23.8885 104.761 23.5304C104.01 23.1724 103.357 22.6289 102.861 21.9487Z" fill="#111111"/>
<path d="M119.988 15.4871L115.08 0.410156H118.085L121.59 11.6922L124.995 0.410156H128L123.092 15.4871V23.6922H120.088V15.4871H119.988Z" fill="#111111"/>
</g>

</symbol><symbol id="icon-arrow" viewBox="0 0 32 12">
<line y1="6" x2="18" y2="6" stroke="black" stroke-width="2"/>
<path d="M24 6L17.25 11.1962L17.25 0.803848L24 6Z" fill="black"/>
</symbol><symbol id="icon-cat-1" viewBox="0 0 50 53">
<circle cx="25" cy="28" r="25" fill="#68B738"/>

<path d="M35.2034 0H35.008C34.6778 0.187081 34.415 0.473924 34.2571 0.819588C33.968 1.37738 33.7453 1.96735 33.5937 2.57732C33.5612 2.76073 33.4688 2.92811 33.331 3.05315C33.1932 3.17818 33.0179 3.25377 32.8326 3.26804C32.2658 3.36597 31.7288 3.59243 31.2626 3.93012C30.7965 4.26781 30.4135 4.7078 30.1429 5.21649C29.7708 5.87697 29.4526 6.5665 29.1914 7.27835C28.4611 9.17526 27.9006 11.134 27.2114 13.0464C26.8874 13.9175 26.872 13.9175 25.8949 13.9175C24.7274 13.9175 24.8097 13.7371 24.7943 15.0258C24.7943 15.433 24.9177 15.6392 25.3497 15.6186C25.4834 15.6186 25.684 15.5515 25.7354 15.7268C25.7869 15.9021 25.612 15.9794 25.5091 16.0825C24.8994 16.7029 24.1276 17.1388 23.2823 17.3402C22.3051 17.6031 21.3074 17.8093 20.356 18.1289C17.9131 18.9485 15.6554 20.0928 13.8966 22.0309C12.8681 23.2347 12.0445 24.6001 11.4589 26.0722C9.57143 30.5258 8.656 35.2165 7.94629 39.9536C7.612 42.1753 7.37543 44.4072 7.19543 46.6546C7.10286 47.7577 7 48.8763 7 50H24.1411C24.1696 49.7731 24.1283 49.5429 24.0229 49.3402C23.858 48.9289 23.5901 48.5672 23.2451 48.29C22.9 48.0128 22.4895 47.8295 22.0531 47.7577C21.6931 47.6753 21.652 47.567 21.8731 47.2835C22.2338 46.801 22.5103 46.2607 22.6909 45.6856C23.5291 43.2062 23.8531 40.6186 24.2594 38.0567C24.4889 36.0999 25.0894 34.2051 26.0286 32.4742C26.7611 31.2002 27.7382 30.0842 28.9034 29.1907C29.3303 28.866 29.3457 28.866 29.4177 29.4175C29.4691 29.7835 29.4794 30.1598 29.5051 30.5309C29.6595 32.9662 29.6285 35.4097 29.4126 37.8402C29.2184 39.7242 29.1926 41.6217 29.3354 43.5103C29.5399 45.7029 29.9304 47.8739 30.5029 50H37.3429C37.2536 49.442 36.9973 48.9243 36.6078 48.5156C36.2184 48.1069 35.7143 47.8264 35.1623 47.7113C34.5177 47.6087 33.8587 47.6438 33.2286 47.8144C32.92 47.8866 32.7914 47.8144 32.7657 47.4794C32.5529 44.7505 32.7261 42.0051 33.28 39.3247C33.966 36.2304 34.4912 33.1025 34.8537 29.9536C34.9887 28.6819 35.3881 27.4528 36.0263 26.3454C36.6383 25.2526 37.1731 24.1186 37.7749 23.0206C38.0138 22.6214 38.1575 22.1723 38.195 21.7083C38.2325 21.2443 38.1626 20.7779 37.9909 20.3454C37.852 19.9794 37.7183 19.6082 37.5486 19.2577C37.0343 18.2526 36.52 17.2577 36.0469 16.2423C35.7949 15.7268 35.8514 15.6649 36.412 15.6495C37.2503 15.6495 37.2503 15.6495 37.2657 14.8041C37.2657 14.6907 37.2657 14.5773 37.2657 14.4639C37.2657 14.1082 37.132 13.9124 36.7514 13.9485C36.4943 13.9485 36.2371 13.9485 35.9697 13.9485C35.6149 13.9485 35.512 13.799 35.5994 13.433C35.7729 12.838 36.1142 12.306 36.5823 11.9009C37.0503 11.4958 37.6252 11.2349 38.2377 11.1495C39.3772 11.0505 40.5251 11.1252 41.6423 11.3711C41.7712 11.4118 41.9109 11.4001 42.0312 11.3383C42.1515 11.2766 42.2427 11.1699 42.2851 11.0412C42.4909 10.5258 42.7171 10.0103 42.9486 9.49484C43.001 9.40339 43.0242 9.29801 43.015 9.19293C43.0058 9.08785 42.9647 8.98812 42.8971 8.90722C41.2514 6.81443 39.4669 4.86082 37.0343 3.60825C36.9168 3.55754 36.8138 3.47814 36.7347 3.3773C36.6557 3.27646 36.6031 3.15738 36.5817 3.03093C36.444 2.29408 36.225 1.57487 35.9286 0.886598C35.7895 0.519904 35.5349 0.20865 35.2034 0V0Z" fill="black"/>


</symbol><symbol id="icon-cat-2" viewBox="0 0 67 50">
<circle cx="34.5" cy="25" r="25" fill="#68B738"/>

<path d="M61.55 13.9C62.1272 12.9815 62.8944 12.1973 63.8 11.6C64.3 11.25 64.6 11.25 64.9 11.9C65.3 12.85 65.65 13.85 65.35 14.9C65.2954 15.0781 65.2851 15.2668 65.3199 15.4497C65.3548 15.6327 65.4338 15.8044 65.55 15.95C65.85 16.35 66.1 16.75 66.35 17.1C66.6902 17.5319 66.9109 18.0456 66.9899 18.5897C67.0689 19.1339 67.0034 19.6892 66.8 20.2C66.6164 20.6959 66.5817 21.2346 66.7 21.75C66.7999 22.245 66.7999 22.755 66.7 23.25C66.6596 23.6207 66.5095 23.9709 66.2691 24.2559C66.0286 24.5409 65.7086 24.7478 65.35 24.85C64.7104 24.9717 64.1396 25.3284 63.75 25.85C63.7028 25.9268 63.6365 25.9901 63.5577 26.0339C63.4789 26.0777 63.3901 26.1005 63.3 26.1C62.7 26.2 61.2 24.85 61.2 24.25V23.95C61.25 22.15 61.15 22 59.5 21.25C59.1546 21.1282 58.8452 20.9219 58.6 20.65C58.3 20.25 57.9 20.3 57.45 20.45C57 20.6 56.75 20.9 56.8 21.4C56.9508 22.6104 57.0009 23.8313 56.95 25.05C56.9533 25.1891 56.9875 25.3257 57.05 25.45C58.6 27.7 59.2 30.35 59.95 32.9C60.55 34.85 61.65 35.9 63.65 36.05C63.97 36.0755 64.2876 36.1257 64.6 36.2C65.0109 36.266 65.3926 36.4538 65.6956 36.739C65.9987 37.0242 66.2092 37.3938 66.3 37.8C66.65 38.85 66.45 39.1 65.4 39.1H62.15C61.7292 39.1213 61.3167 38.9778 61 38.7C60.4939 38.2729 59.9191 37.9348 59.3 37.7C58.6155 37.4473 58.0231 36.9943 57.6 36.4C57.0143 35.5817 56.3439 34.8275 55.6 34.15C54.2 32.7 52.7 31.3 51.4 29.8C50.4103 28.7779 49.8395 27.4221 49.8 26C49.8 25.55 49.7 25.35 49.2 25.55C49.0503 25.645 48.8773 25.6969 48.7 25.7C47.3 25.7 46.6 26.55 46.1 27.8C45.65 28.85 45.05 29.85 44.5 30.9C44.1881 31.5572 44.0178 32.2727 44 33C44 34.2 44.3 34.6 45.4 35C46.1 35.25 46.75 35.5 47.1 36.2C47.5 37 47.4 37.2 46.55 37.25H43.15C42.954 37.2694 42.7568 37.2267 42.5864 37.1281C42.4159 37.0294 42.2807 36.8796 42.2 36.7L41.3 35.2C41.0347 34.8086 40.8648 34.3605 40.8041 33.8916C40.7433 33.4227 40.7932 32.9461 40.95 32.5C41.1664 31.6317 41.1835 30.7258 41 29.85C40.8739 29.24 40.8848 28.6097 41.0318 28.0045C41.1788 27.3993 41.4582 26.8342 41.85 26.35C42.15 26 42.15 25.85 41.65 25.75C39.6054 25.3157 37.6233 24.627 35.75 23.7C35.7367 23.7 35.724 23.6947 35.7146 23.6853C35.7052 23.676 35.7 23.6632 35.7 23.65C34.1 23.05 33.8 23.15 33.35 24.8C32.95 26.2 32.55 27.6 32.25 29.05C31.9 30.65 32.3 32.15 32.8 33.65C33 34.25 33.6 34.2 34.05 34.35C35.05 34.65 35.9 35.05 36.3 36.1C36.65 36.9 36.6 37 35.75 37C34.9 37 34.05 36.95 33.15 37C32.3905 37.0137 31.6493 36.7667 31.05 36.3C28.65 34.7 27.95 32.25 27.75 29.6C27.65 27.95 26.75 26.65 25.7 25.4C25.5 25.15 25.3 25.05 25 25.25C23.9267 25.8418 22.8062 26.3435 21.65 26.75C19.2371 27.602 17.1198 29.1292 15.55 31.15C14.9638 31.8875 14.5842 32.7675 14.45 33.7C14.3 34.6 14.55 35 15.45 35.25C16.35 35.5 16.8 36 16.9 36.95C16.95 37.35 16.8 37.55 16.4 37.55H12.35C12.2174 37.5406 12.0891 37.4993 11.9759 37.4297C11.8628 37.36 11.7681 37.2641 11.7 37.15C11.0719 36.3724 10.7358 35.3995 10.75 34.4C10.7237 32.6724 10.8745 30.9468 11.2 29.25C11.2667 28.7418 11.4564 28.2576 11.7527 27.8394C12.0489 27.4212 12.4427 27.0815 12.9 26.85C15.85 25.45 17.4 22.8 18.8 20.05C19.1 19.5 18.85 19.4 18.35 19.45C16.9506 19.6442 15.6248 20.1952 14.5 21.05C13.0271 22.1244 11.6396 23.3113 10.35 24.6C8.9748 25.9968 7.15133 26.8643 5.19998 27.05C1.54998 27.25 -0.150021 25.2 -2.12286e-05 21.9C0.03351 20.7748 0.457802 19.6964 1.19998 18.85C1.45799 18.5155 1.80985 18.2655 2.21061 18.1319C2.61138 17.9983 3.04287 17.9872 3.44998 18.1C4.19998 18.3 4.39998 18.7 4.09998 19.45C3.94998 19.75 3.74998 20 3.59998 20.3C3.38428 20.6065 3.21574 20.9435 3.09998 21.3C2.54998 22.8 3.29998 23.85 4.84998 24C6.49998 24.15 7.84998 23.45 9.09998 22.45C10.6059 21.2441 11.9503 19.8493 13.1 18.3C13.9596 17.1687 15.042 16.2256 16.2804 15.529C17.5188 14.8325 18.8868 14.3971 20.3 14.25C21.45 14.1 22.45 13.6 23.55 13.3C25.6072 12.6728 27.7495 12.3692 29.9 12.4C30.896 12.4415 31.8883 12.2533 32.8 11.85C35.25 10.85 37.8 10.85 40.35 11.35C42.35 11.75 44.35 12.25 46.3 12.75C47.4605 12.9662 48.6537 12.9321 49.8 12.65C51.9943 12.0937 54.2389 11.7587 56.5 11.65C57.9812 11.5779 59.4576 11.8697 60.8 12.5C61.8 12.95 61.8 12.95 61.55 13.9Z" fill="black"/>


</symbol></svg>