<svg width="32" height="33" viewBox="0 0 32 33" fill="none" xmlns="http://www.w3.org/2000/svg">
<ellipse cx="21.2042" cy="11.3299" rx="1.0873" ry="1.08512" fill="white"/>
<ellipse cx="10.3311" cy="11.3299" rx="1.08731" ry="1.08512" fill="white"/>
<ellipse cx="10.3311" cy="24.3512" rx="1.08731" ry="1.08512" fill="white"/>
<ellipse cx="15.7677" cy="26.5215" rx="1.0873" ry="1.08512" fill="white"/>
<ellipse cx="7.06924" cy="17.7748" rx="1.08731" ry="1.08512" fill="white"/>
<ellipse cx="24.4661" cy="17.7748" rx="1.0873" ry="1.08512" fill="white"/>
<ellipse cx="21.2042" cy="24.3512" rx="1.0873" ry="1.08512" fill="white"/>

<path fill-rule="evenodd" clip-rule="evenodd" d="M20.9215 29.0581C21.3298 28.8622 21.8226 28.9298 22.1385 29.2542L23.9644 31.1292C24.2319 31.4039 24.6734 31.4039 24.941 31.1292C25.1987 30.8645 25.1987 30.4427 24.941 30.1781L23.5843 28.7849C23.1584 28.3475 23.2228 27.6356 23.682 27.2333C26.3238 24.9195 28 21.4688 28 17.6145C28 10.6477 22.5235 5 15.7678 5C9.01218 5 3.53564 10.6477 3.53564 17.6145C3.53564 21.4288 5.17729 24.8477 7.77166 27.1608C8.22438 27.5644 8.28489 28.2708 7.86173 28.7054L6.42757 30.1781C6.16985 30.4427 6.16984 30.8645 6.42756 31.1291C6.69513 31.4039 7.13664 31.4039 7.40421 31.1292L9.28384 29.199C9.60245 28.8718 10.1004 28.8061 10.5102 29.0076C12.103 29.7907 13.8858 30.229 15.7678 30.229C17.609 30.229 19.3553 29.8095 20.9215 29.0581ZM15.7678 28.8274C21.7728 28.8274 26.6409 23.8072 26.6409 17.6145C26.6409 11.4218 21.7728 6.40161 15.7678 6.40161C9.7628 6.40161 4.89478 11.4218 4.89478 17.6145C4.89478 23.8072 9.7628 28.8274 15.7678 28.8274ZM15.0083 17.298V13.5001V9.94092C15.0083 9.50942 15.3581 9.15963 15.7895 9.15963C16.221 9.15963 16.5708 9.50942 16.5708 9.94092V13.5001V17.298V17.8406V18.1226C16.5708 18.5661 16.2113 18.9257 15.7677 18.9257C15.3483 18.9257 15.0083 18.5857 15.0083 18.1663V17.8406V17.298Z" fill="white"/>

<rect x="15" y="6" width="4" height="1.5" transform="rotate(-90 15 6)" fill="white"/>
<rect x="8" y="2" width="15.5" height="1.5" rx="0.75" fill="white"/>
</svg>
